<?xml version="1.0" standalone="no"?><!DOCTYPE svg PUBLIC "-//W3C//DTD SVG 1.1//EN" "http://www.w3.org/Graphics/SVG/1.1/DTD/svg11.dtd"><svg t="1587051471590" class="icon" viewBox="0 0 1024 1024" version="1.1" xmlns="http://www.w3.org/2000/svg" p-id="2130" xmlns:xlink="http://www.w3.org/1999/xlink" width="600" height="600"><defs><style type="text/css"></style></defs><path d="M54.872501 515.698303c0-97.187972 31.134554-191.279691 90.479422-270.406182 72.245926-96.67193 178.206619-159.45708 297.928439-176.65849199s238.9276 13.245087 335.59953 85.66302699C978.760289 304.120947 1019.355619 588.288258 869.875357 787.99663999c-62.78515 83.770872-153.092558 143.459768-254.580884 168.22980001-17.373425 4.300353-34.918864-6.364522-39.047203-23.737947-4.128339-17.373425 6.364522-34.918864 23.737947-39.047203 86.867126-21.157736 164.44549-72.41794101 218.285906-144.147825C946.249622 578.13942501 911.330758 334.395431 740.176718 206.244919c-82.910801-62.097094-185.087183-88.243239-287.607593-73.450025s-193.34386 68.461616-255.440954 151.372417c-128.322526 171.326054-93.403662 414.898035 77.92239199 543.220561 44.895683 33.54275199 95.123803 56.592642 149.30824801 68.289602 17.373425 3.78431 28.554342 21.157736 24.770032 38.359147-3.78431 17.373425-20.985721 28.554342-38.359147 24.77003201-63.473207-13.761129-122.130018-40.59533-174.422308-79.81454701-96.67193-72.417941-159.45708-178.378633-176.658492-298.100454C56.420628 559.217873 54.872501 537.372081 54.872501 515.698303z" p-id="2131" data-spm-anchor-id="a313x.7781069.0.i3" class="selected" fill="#ffffff"></path></svg>